<svg clip-rule="evenodd" fill-rule="evenodd" stroke-linejoin="round" stroke-miterlimit="2" viewBox="0 0 64 64" xmlns="http://www.w3.org/2000/svg"><path d="m-.0007.0001h64v64h-64z" fill="none"/><g fill-rule="nonzero" transform="matrix(3.36336 0 0 3.36336 -.542 -5.8379)"><g fill="#fefeff"><path d="m2.978 14.537c-.258.27-.549.513-.857.712-.232.15-.542.083-.691-.149-.15-.233-.083-.542.149-.692.734-.472 1.284-1.227 1.411-1.788.056-.246.284-.408.528-.388.258.021.46.236.46.499v5.769c0 .276-.224.5-.5.5s-.5-.224-.5-.5z"/><path d="m7.586 13.231c-.63 0-1.093.542-1.093 1.073 0 .276-.224.5-.5.5s-.5-.224-.5-.5c0-1.042.87-2.073 2.093-2.073.722 0 1.42.326 1.813.909.41.61.427 1.413-.057 2.211-.246.404-.584.711-.917.965-.167.128-.339.247-.503.359l-.071.048c-.14.096-.273.186-.402.28-.431.314-.738.606-.876.997h2.588c.276 0 .5.224.5.5s-.224.5-.5.5h-3.153-.015c-.276 0-.5-.224-.5-.5 0-1.167.702-1.821 1.368-2.305.142-.104.289-.204.428-.299l.069-.047c.163-.111.316-.218.46-.328.29-.221.516-.439.669-.69.312-.513.245-.891.082-1.133-.181-.269-.545-.467-.983-.467z"/><path d="m12.062 13.492c-.163.138-.247.309-.282.429-.078.265-.357.417-.621.338-.265-.078-.417-.356-.338-.621.078-.264.252-.618.592-.907.348-.298.839-.5 1.494-.5 1.325 0 2.106.936 2.106 1.811 0 .345-.069.873-.437 1.321-.065.079-.138.153-.217.221.125.093.243.206.344.343.199.271.31.606.31 1 0 .714-.249 1.26-.686 1.616-.419.342-.946.457-1.42.457-.45 0-.888-.072-1.265-.303-.388-.238-.652-.606-.815-1.085-.089-.261.051-.545.312-.634.262-.089.546.05.635.312.104.308.242.464.39.554.158.097.389.156.743.156.329 0 .605-.082.788-.232.166-.135.318-.375.318-.841 0-.197-.052-.32-.115-.406-.068-.092-.172-.172-.315-.237-.3-.136-.683-.169-.944-.169-.276 0-.5-.223-.5-.5 0-.276.224-.5.5-.5.712 0 1.02-.212 1.164-.387.16-.195.21-.454.21-.686 0-.279-.289-.811-1.106-.811-.436 0-.692.129-.845.261z"/></g><path d="m2 9.25c0-.414.336-.75.75-.75h14.5c.414 0 .75.336.75.75s-.336.75-.75.75h-14.5c-.414 0-.75-.336-.75-.75z" fill="#8fcceb"/><path d="m2 4.25c0-.414.336-.75.75-.75h14.5c.414 0 .75.336.75.75s-.336.75-.75.75h-14.5c-.414 0-.75-.336-.75-.75z" fill="#8fcceb"/><path d="m16 14.25c0-.414.336-.75.75-.75h.5c.414 0 .75.336.75.75s-.336.75-.75.75h-.5c-.414 0-.75-.336-.75-.75z" fill="#fff"/></g></svg>